<svg xmlns="http://www.w3.org/2000/svg" xmlns:xlink="http://www.w3.org/1999/xlink" width="64" zoomAndPan="magnify" viewBox="0 0 48 48" height="64" preserveAspectRatio="xMidYMid meet" version="1.0"><defs><g/><clipPath id="08be7134e1"><path d="M 5 21 L 43 21 L 43 46.332031 L 5 46.332031 Z M 5 21 " clip-rule="nonzero"/></clipPath><clipPath id="48eaeb7252"><path d="M 4.109375 0.78125 L 42 0.78125 L 42 26 L 4.109375 26 Z M 4.109375 0.78125 " clip-rule="nonzero"/></clipPath><clipPath id="fd939ffea8"><path d="M 0.113281 1 L 2.933594 1 L 2.933594 5 L 0.113281 5 Z M 0.113281 1 " clip-rule="nonzero"/></clipPath><clipPath id="fa6474de9b"><rect x="0" width="3" y="0" height="6"/></clipPath></defs><g clip-path="url(#08be7134e1)"><path fill="#ffffff" d="M 41.554688 22.300781 C 40.78125 21.820312 39.722656 22.011719 39.140625 22.6875 C 35.183594 27.515625 25.53125 27.996094 21.574219 27.996094 C 21.382812 27.996094 21.285156 27.996094 21.09375 27.996094 L 21.09375 23.847656 C 21.09375 23.074219 20.707031 22.398438 20.03125 22.109375 C 19.355469 21.820312 18.582031 21.917969 18.003906 22.398438 L 6.035156 32.726562 C 5.652344 33.113281 5.359375 33.59375 5.359375 34.175781 C 5.359375 34.753906 5.554688 35.234375 6.035156 35.621094 L 17.90625 45.757812 C 18.292969 46.046875 18.679688 46.238281 19.164062 46.238281 C 19.453125 46.238281 19.742188 46.140625 19.933594 46.046875 C 20.609375 45.757812 20.996094 45.082031 20.996094 44.308594 L 20.996094 40.449219 C 21.09375 40.449219 21.285156 40.449219 21.480469 40.449219 C 25.824219 40.449219 36.632812 38.902344 42.328125 24.617188 C 42.617188 23.75 42.328125 22.785156 41.554688 22.300781 Z M 41.554688 22.300781 " fill-opacity="1" fill-rule="nonzero"/></g><g clip-path="url(#48eaeb7252)"><path fill="#ffffff" d="M 6.421875 25.101562 C 7 25.101562 7.484375 24.910156 7.871094 24.425781 C 11.828125 19.601562 21.480469 19.117188 25.4375 19.117188 C 25.628906 19.117188 25.726562 19.117188 25.917969 19.117188 L 25.917969 23.269531 C 25.917969 24.039062 26.304688 24.714844 26.980469 25.003906 C 27.65625 25.292969 28.429688 25.199219 29.007812 24.714844 L 40.878906 14.484375 C 41.265625 14.097656 41.554688 13.617188 41.554688 13.035156 C 41.554688 12.457031 41.363281 11.976562 40.878906 11.589844 L 29.105469 1.359375 C 28.523438 0.875 27.753906 0.78125 27.078125 1.070312 C 26.402344 1.359375 26.015625 2.035156 26.015625 2.804688 L 26.015625 6.667969 C 25.917969 6.667969 25.726562 6.667969 25.53125 6.667969 C 21.191406 6.667969 10.378906 8.210938 4.683594 22.496094 C 4.300781 23.363281 4.683594 24.328125 5.457031 24.8125 C 5.746094 25.003906 6.132812 25.101562 6.421875 25.101562 Z M 6.421875 25.101562 " fill-opacity="1" fill-rule="nonzero"/></g><g transform="matrix(1, 0, 0, 1, 30, 29)"><g clip-path="url(#fa6474de9b)"><g clip-path="url(#fd939ffea8)"><g fill="#ffffff" fill-opacity="1"><g transform="translate(0.208105, 4.375122)"><g><path d="M 0.34375 0 L 0.34375 -0.328125 L 1.125 -0.328125 L 1.125 -2.6875 L 0.421875 -2.203125 L 0.421875 -2.5625 L 1.15625 -3.0625 L 1.515625 -3.0625 L 1.515625 -0.328125 L 2.265625 -0.328125 L 2.265625 0 Z M 0.34375 0 "/></g></g></g></g></g></g></svg>